<svg width="190" height="41" viewBox="0 0 190 41" fill="none" xmlns="http://www.w3.org/2000/svg">
<g clip-path="url(#clip0_6870_675)">
<mask id="mask0_6870_675" style="mask-type:luminance" maskUnits="userSpaceOnUse" x="0" y="0" width="190" height="41">
<path d="M190 0H0V41H190V0Z" fill="white"/>
</mask>
<g mask="url(#mask0_6870_675)">
<path d="M25.4 10.2C33.2 14.6 36.9 24.2 34.1 32.7C42.3 23.8 40 9.20002 29.4 3.20002C19 -2.99998 5.2 2.30002 1.5 13.9C7.5 7.20002 17.6 5.70002 25.4 10.2Z" fill="#F47621"/>
<path d="M15.3 9.69995C9.20002 9.79995 3.50002 13.3999 0.700017 18.6999C-0.299983 32.3999 14 42.7999 26.7 37.7999C22.3 37.4999 18 35.6999 14.8 32.7999C4.90002 23.9999 10.9 11.4999 15.3 9.79995V9.69995Z" fill="#32A6DE"/>
<path d="M29.4998 25.4C26.6998 30.4999 19.7998 32.5 14.7998 29.7C18.5998 34.2 24.7998 36.5 30.6998 35.5C33.6998 30.5 33.8998 23.9 30.9998 18.7C31.1998 21 30.6998 23.3 29.5998 25.4H29.4998Z" fill="#68B345"/>
<path d="M156 7.39995C155.5 6.99995 155 6.69995 154.3 6.69995C153.6 6.69995 153.1 6.89995 152.6 7.39995C152.2 7.89995 151.9 8.39995 151.9 9.09995C151.9 9.79995 152.1 10.3 152.6 10.8C153.1 11.3 153.6 11.5 154.3 11.5C155 11.5 155.5 11.3 156 10.8C156.4 10.3 156.7 9.79995 156.7 9.09995C156.7 8.39995 156.5 7.89995 156 7.39995Z" fill="#4F4F4F"/>
<path d="M56.7002 15.2001C56.1002 14.6001 55.3002 14.1001 54.5002 13.7001C53.6002 13.4001 52.7002 13.2001 51.7002 13.2001C50.7002 13.2001 50.2002 13.3001 49.4002 13.5001C48.6002 13.7001 48.6002 13.8001 48.1002 13.9001V7.8001C48.1002 7.3001 47.9002 6.9001 47.6002 6.6001C47.3002 6.3001 46.8002 6.1001 46.4002 6.1001C46.0002 6.1001 45.5002 6.3001 45.2002 6.6001C44.9002 6.9001 44.7002 7.4001 44.7002 7.8001V31.0001C44.7002 31.5001 44.9002 31.9001 45.2002 32.2001C45.5002 32.5001 46.0002 32.7001 46.4002 32.7001C46.8002 32.7001 47.3002 32.5001 47.6002 32.2001C47.9002 31.9001 48.1002 31.4001 48.1002 31.0001V17.8001C49.1002 16.9001 50.3002 16.5001 51.6002 16.5001C52.9002 16.5001 53.6002 16.8001 54.2002 17.4001C54.8002 18.0001 55.1002 18.9001 55.1002 20.0001V31.0001C55.1002 31.5001 55.3002 31.9001 55.6002 32.2001C55.9002 32.5001 56.4002 32.7001 56.8002 32.7001C57.2002 32.7001 57.7002 32.5001 58.0002 32.2001C58.3002 31.9001 58.5002 31.4001 58.5002 31.0001V20.2001C58.5002 19.2001 58.3002 18.2001 58.0002 17.4001C57.7002 16.5001 57.2002 15.8001 56.6002 15.2001H56.7002Z" fill="#4F4F4F"/>
<path d="M83.6 15C83.3 14.6 83 14.4 82.5 14.2C81.6 13.9 80.7 13.6 79.8 13.5C78.9 13.4 77.9 13.3 77 13.3C76.1 13.3 75 13.5 74.1 13.8C73.2 14.1 72.5 14.6 71.9 15.3C71.3 15.9 70.8 16.7 70.5 17.5C70.2 18.4 70 19.3 70 20.3V25.8C70 26.8 70.2 27.8 70.5 28.6C70.8 29.5 71.3 30.2 71.9 30.8C72.5 31.4 73.3 31.9 74.1 32.3C75 32.6 75.9 32.8 76.9 32.8C77.9 32.8 78.5 32.8 79.2 32.5C79.6 32.5 80 32.2 80.4 32V33.3C80.4 34.4 80.1 35.3 79.5 36C78.9 36.7 78.1 37 76.9 37C75.7 37 75.6 37.0001 75 36.7001C74.3 36.5001 73.7 36.3 73.1 36C72.8 36 72.6 36 72.4 36C71.9 36 71.5 36.2 71.2 36.5C70.9 36.8 70.7 37.2001 70.7 37.7001C70.7 38.2001 71.1 39 71.7 39.3C72.5 39.6 73.3 39.9 74.2 40.1C75.1 40.3 75.9 40.4001 76.9 40.4001C77.9 40.4001 78.9 40.2001 79.7 39.9001C80.6 39.6001 81.3 39.1 81.9 38.5C82.5 37.9 83 37.1 83.3 36.3C83.6 35.4 83.8 34.5001 83.8 33.4001V16.3C83.8 15.8 83.8 15.4 83.4 15H83.6ZM80.5 28.2C80.1 28.6 79.5 28.9 79 29.1C78.4 29.3 77.7 29.5 77 29.5C75.9 29.5 75 29.2 74.4 28.6C73.8 28 73.5 27.1 73.5 26V20.1C73.5 19 73.8 18.1 74.4 17.5C75 16.9 75.9 16.6 77 16.6C78.1 16.6 79.4 16.8 80.5 17.1V28.3V28.2Z" fill="#4F4F4F"/>
<path d="M100.101 15.2001C99.5006 14.6001 98.7006 14.1001 97.9006 13.7001C97.0006 13.4001 96.1006 13.2001 95.1006 13.2001C94.1006 13.2001 93.6006 13.3001 92.8006 13.5001C92.4006 13.6001 91.9006 13.8001 91.5006 13.9001V7.8001C91.5006 7.3001 91.3006 6.9001 91.0006 6.6001C90.7006 6.3001 90.2006 6.1001 89.8006 6.1001C89.4006 6.1001 88.9006 6.3001 88.6006 6.6001C88.3006 6.9001 88.1006 7.4001 88.1006 7.8001V31.0001C88.1006 31.5001 88.3006 31.9001 88.6006 32.2001C88.9006 32.5001 89.4006 32.7001 89.8006 32.7001C90.2006 32.7001 90.7006 32.5001 91.0006 32.2001C91.3006 31.9001 91.5006 31.4001 91.5006 31.0001V17.8001C92.5006 16.9001 93.7006 16.5001 95.0006 16.5001C96.3006 16.5001 97.0006 16.8001 97.6006 17.4001C98.2006 18.0001 98.5006 18.9001 98.5006 20.0001V31.0001C98.5006 31.5001 98.7006 31.9001 99.0006 32.2001C99.3006 32.5001 99.8006 32.7001 100.201 32.7001C100.601 32.7001 101.101 32.5001 101.401 32.2001C101.701 31.9001 101.901 31.4001 101.901 31.0001V20.2001C101.901 19.2001 101.701 18.2001 101.401 17.4001C101.101 16.5001 100.601 15.8001 100.001 15.2001H100.101Z" fill="#4F4F4F"/>
<path d="M113.8 13.6C112.8 13.4 112 13.3 111.3 13.3C110.6 13.3 109.7 13.4 109.1 13.7C108.5 14 107.9 14.3 107.4 14.8C106.9 15.3 106.6 15.8 106.3 16.5C106 17.2 105.9 17.9 105.9 18.7V31.1C105.9 31.6 106.1 32 106.4 32.3C106.7 32.6 107.2 32.8 107.6 32.8C108 32.8 108.5 32.6 108.8 32.3C109.1 32 109.3 31.5 109.3 31.1V18.6C109.3 18 109.5 17.5 109.8 17.2C110.1 16.9 110.5 16.7 111 16.7H111.8C112.1 16.7 112.3 16.7 112.6 16.8H113.3C113.7 16.8 114.2 16.6 114.5 16.3C114.9 16 115 15.6 115 15.1C115 14.6 115 14.4 114.6 14C114.3 13.7 114 13.4 113.6 13.4L113.8 13.6Z" fill="#4F4F4F"/>
<path d="M130.101 16.6C129.701 15.9 129.201 15.2 128.601 14.7C128.001 14.2 127.301 13.8 126.501 13.6C125.701 13.4 124.801 13.2 123.901 13.2C123.001 13.2 122.101 13.3 121.201 13.5C120.201 13.7 119.301 14.1 118.401 14.7C117.801 15.1 117.501 15.6 117.501 16.2C117.501 16.8 117.701 17.1 118.001 17.5C118.301 17.8 118.701 17.9 119.201 17.9C119.701 17.9 119.801 17.9 120.101 17.6C120.701 17.2 121.401 16.9 122.001 16.8C122.601 16.6 123.201 16.5 123.901 16.5C124.901 16.5 125.701 16.7 126.301 17.2C126.801 17.6 127.101 18.3 127.101 19.2V20.9H123.601C122.501 20.9 121.501 21 120.601 21.3C119.701 21.5 118.901 22 118.301 22.5C117.101 23.6 116.601 25 116.601 26.8C116.601 28.6 117.201 30.1 118.301 31.1C119.501 32.2 121.301 32.7999 123.601 32.7999C125.901 32.7999 125.501 32.7998 126.401 32.5998C127.301 32.3998 128.201 32.2 129.101 31.9C129.501 31.7 129.901 31.5 130.201 31.1C130.501 30.7 130.601 30.2999 130.601 29.7999V19.2C130.601 18.2 130.401 17.3 130.001 16.6H130.101ZM127.101 29.1C126.001 29.4 124.801 29.6 123.601 29.6C122.401 29.6 122.101 29.5999 121.601 29.2999C121.101 29.0999 120.801 28.9 120.601 28.7C120.401 28.5 120.201 28.2 120.201 27.9C120.201 27.6 120.201 27.2 120.201 26.9C120.201 26.6 120.201 26.3 120.201 25.9C120.201 25.6 120.401 25.4 120.601 25.1C120.801 24.9 121.201 24.7 121.601 24.5C122.101 24.3 122.701 24.2 123.601 24.2H127.101V29V29.1Z" fill="#4F4F4F"/>
<path d="M148.101 6.69995C147.801 6.39995 147.301 6.19995 146.901 6.19995C146.501 6.19995 146.001 6.39995 145.701 6.69995C145.401 6.99995 145.201 7.49995 145.201 7.89995V14C144.801 13.8 144.401 13.7 143.901 13.6C143.201 13.4 142.401 13.3 141.601 13.3C139.501 13.3 137.801 13.9 136.501 15.2C135.201 16.5 134.601 18.2 134.601 20.3V25.7999C134.601 26.7999 134.801 27.8 135.101 28.6C135.401 29.5 135.901 30.1999 136.501 30.7999C137.101 31.3999 137.901 31.8999 138.701 32.2999C139.601 32.5999 140.501 32.7999 141.501 32.7999C142.501 32.7999 143.401 32.7999 144.301 32.5999C145.201 32.3999 146.101 32.2 147.001 31.9C147.401 31.7 147.801 31.5 148.101 31.1C148.401 30.7 148.501 30.2999 148.501 29.7999V7.89995C148.501 7.39995 148.301 6.99995 148.001 6.69995H148.101ZM145.101 29.1C144.001 29.4 142.801 29.6 141.601 29.6C140.401 29.6 139.601 29.3 139.001 28.7C138.401 28.1 138.101 27.2 138.101 26.1V20.2C138.101 19.1 138.401 18.2 139.001 17.6C139.601 17 140.501 16.7 141.601 16.7C142.701 16.7 143.001 16.7 143.601 17C144.101 17.2 144.601 17.4 145.101 17.8V29.1Z" fill="#4F4F4F"/>
<path d="M154.301 13.3C153.801 13.3 153.401 13.5 153.101 13.8C152.801 14.1 152.601 14.6 152.601 15V31.1C152.601 31.6 152.801 32 153.101 32.3C153.401 32.6 153.901 32.8 154.301 32.8C154.701 32.8 155.201 32.6 155.501 32.3C155.801 32 156.001 31.5 156.001 31.1V15C156.001 14.5 155.801 14.1 155.501 13.8C155.201 13.5 154.701 13.3 154.301 13.3Z" fill="#4F4F4F"/>
<path d="M172.3 13.3C171.8 13.3 171.4 13.5 171.1 13.8C170.8 14.1 170.6 14.6 170.6 15V29C169.5 29.3 168.3 29.5 167.1 29.5C165.9 29.5 165.1 29.2 164.5 28.6C163.9 28 163.6 27.1 163.6 26V15C163.6 14.5 163.4 14.1 163.1 13.8C162.8 13.5 162.3 13.3 161.9 13.3C161.5 13.3 161 13.5 160.7 13.8C160.4 14.1 160.2 14.6 160.2 15V25.8C160.2 27.9 160.8 29.6 162.1 30.9C163.4 32.2 165.1 32.8 167.2 32.8C169.3 32.8 169.1 32.8 170 32.6C170.9 32.4 171.8 32.2 172.7 31.9C173.1 31.7 173.5 31.5 173.8 31.1C174.1 30.7 174.2 30.3 174.2 29.8V15C174.2 14.5 174 14.1 173.7 13.8C173.4 13.5 172.9 13.3 172.5 13.3H172.3Z" fill="#4F4F4F"/>
<path d="M188.3 23.8999C187.6 22.9999 186.7 22.2999 185.5 21.8999L182.2 20.5999C181.9 20.4999 181.5 20.1999 181.2 19.8999C180.9 19.5999 180.8 19.1999 180.8 18.6999C180.8 18.1999 180.8 18.0999 181 17.7999C181.1 17.5999 181.3 17.3999 181.6 17.1999C181.8 16.9999 182.1 16.8999 182.4 16.7999C182.7 16.7999 183 16.6999 183.3 16.6999C184.6 16.6999 185.7 16.8999 186.8 17.3999C187.1 17.4999 187.3 17.5999 187.6 17.5999C187.9 17.5999 188.4 17.3999 188.7 17.1999C189.1 16.8999 189.2 16.4999 189.2 15.9999C189.2 15.4999 188.8 14.6999 188.1 14.3999C187.4 14.0999 186.8 13.8999 186 13.6999C185.3 13.4999 184.4 13.3999 183.5 13.3999C182.6 13.3999 181.9 13.4999 181.1 13.7999C180.3 13.9999 179.7 14.3999 179.1 14.8999C178.5 15.3999 178.1 15.8999 177.7 16.5999C177.4 17.2999 177.2 17.9999 177.2 18.7999C177.2 20.1999 177.6 21.2999 178.3 22.0999C179 22.8999 179.8 23.3999 180.7 23.7999L184 25.1999C184.7 25.4999 185.2 25.7999 185.5 26.1999C185.8 26.4999 185.9 26.9999 185.9 27.5999C185.9 28.1999 185.7 28.6999 185.2 29.0999C184.7 29.4999 184 29.6999 183.3 29.6999C182.6 29.6999 182 29.6999 181.4 29.4999C180.8 29.2999 180.2 29.0999 179.7 28.8999C179.6 28.8999 179.5 28.8999 179.4 28.7999H179C178.5 28.7999 178.1 28.9999 177.8 29.2999C177.5 29.5999 177.3 29.9999 177.3 30.4999C177.3 30.9999 177.7 31.7999 178.3 32.0999C179 32.3999 179.8 32.6999 180.6 32.8999C181.4 33.0999 182.3 33.1999 183.2 33.1999C184.1 33.1999 184.9 33.1999 185.7 32.7999C186.5 32.4999 187.1 32.0999 187.7 31.5999C188.3 31.0999 188.7 30.4999 189 29.7999C189.3 29.0999 189.5 28.2999 189.5 27.4999C189.5 26.2999 189.1 25.1999 188.4 24.2999V23.8999H188.3Z" fill="#4F4F4F"/>
<path d="M64.3004 6.69995C63.6004 6.69995 63.1004 6.89995 62.6004 7.39995C62.2004 7.89995 61.9004 8.39995 61.9004 9.09995C61.9004 9.79995 62.1004 10.3 62.6004 10.8C63.1004 11.3 63.6004 11.5 64.3004 11.5C65.0004 11.5 65.5004 11.3 66.0004 10.8C66.4004 10.3 66.7004 9.79995 66.7004 9.09995C66.7004 8.39995 66.5004 7.89995 66.0004 7.39995C65.5004 6.99995 65.0004 6.69995 64.3004 6.69995Z" fill="#4F4F4F"/>
<path d="M64.3006 13.3C63.8006 13.3 63.4006 13.5 63.1006 13.8C62.8006 14.1 62.6006 14.6 62.6006 15V31.1C62.6006 31.6 62.8006 32 63.1006 32.3C63.4006 32.6 63.9006 32.8 64.3006 32.8C64.7006 32.8 65.2006 32.6 65.5006 32.3C65.8006 32 66.0006 31.5 66.0006 31.1V15C66.0006 14.5 65.8006 14.1 65.5006 13.8C65.2006 13.5 64.7006 13.3 64.3006 13.3Z" fill="#4F4F4F"/>
</g>
</g>
<defs>
<clipPath id="clip0_6870_675">
<rect width="190" height="41" fill="white"/>
</clipPath>
</defs>
</svg>
